# xmcd CD database file
#
# Track frame offsets:
#	182
#	13802
#	50495
#	70790
#	92897
#	114765
#	158992
#	172110
#	198922
#	235197
#	258600
#	284217
#	313992
#	328737
#	336407
#
# Disc length: 4655 seconds
#
# Revision: 0
# Processed by: cddbd v1.4PL0 Copyright (c) Steve Scherf et al.
# Submitted via: CDex 1.50beta9
#
DISCID=e7122d0f
DTITLE=Patrice Caratini - Anything goes
DYEAR=2000
DGENRE=Jazz
TTITLE0=Anything goes
TTITLE1=Just one of those things
TTITLE2=Miss Otis regrets
TTITLE3=Quitte la ville
TTITLE4=Get out the town
TTITLE5=My heart belongs to daddy
TTITLE6=Too darn hot
TTITLE7=You'd be so nice to come to
TTITLE8=What is this thing called love
TTITLE9=Amour à vendre
TTITLE10=Love for sale
TTITLE11=All of you
TTITLE12=Before the night
TTITLE13=Night and day
TTITLE14=Silent dance
EXTD=YEAR: 2000
EXTT0=
EXTT1=
EXTT2=
EXTT3=
EXTT4=
EXTT5=
EXTT6=
EXTT7=
EXTT8=
EXTT9=
EXTT10=
EXTT11=
EXTT12=
EXTT13=
EXTT14=
PLAYORDER=
